<svg xmlns="http://www.w3.org/2000/svg" viewBox="0 0 1024 1024">
  <defs>
    <linearGradient id="background" x1="96" y1="80" x2="928" y2="944" gradientUnits="userSpaceOnUse">
      <stop stop-color="#142A4F"/>
      <stop offset="0.52" stop-color="#09182F"/>
      <stop offset="1" stop-color="#050B17"/>
    </linearGradient>
    <linearGradient id="harmony" x1="256" y1="236" x2="790" y2="804" gradientUnits="userSpaceOnUse">
      <stop stop-color="#62D8FF"/>
      <stop offset="0.48" stop-color="#1689FF"/>
      <stop offset="1" stop-color="#3457F5"/>
    </linearGradient>
    <radialGradient id="glow" cx="0" cy="0" r="1" gradientTransform="translate(512 456) rotate(90) scale(436)" gradientUnits="userSpaceOnUse">
      <stop stop-color="#1689FF" stop-opacity="0.2"/>
      <stop offset="1" stop-color="#1689FF" stop-opacity="0"/>
    </radialGradient>
  </defs>

  <rect width="1024" height="1024" rx="224" fill="url(#background)"/>
  <circle cx="512" cy="456" r="436" fill="url(#glow)"/>

  <g fill="url(#harmony)">
    <rect x="238" y="238" width="262" height="262" rx="88"/>
    <rect x="524" y="238" width="262" height="262" rx="88"/>
    <rect x="238" y="524" width="262" height="262" rx="88"/>
    <rect x="524" y="524" width="262" height="262" rx="88"/>
  </g>

  <path
    d="M353.554 0H298.446C273.006 0 249.684 14.6347 237.962 37.9539L4.37994 502.646C-1.04325 513.435-1.45067 526.178 3.2716 537.313L22.6123 582.918C34.6475 611.297 72.5404 614.156 88.4414 587.885L309.863 222.063C313.34 216.317 319.439 212.826 326 212.826C332.561 212.826 338.659 216.317 342.137 222.063L563.559 587.885C579.46 614.156 617.352 611.297 629.388 582.918L648.728 537.313C653.451 526.178 653.043 513.435 647.62 502.646L414.038 37.9539C402.316 14.6347 378.994 0 353.554 0Z"
    fill="#FFFFFF"
    transform="translate(320 333) scale(.59)"
  />
</svg>
